# xmcd
#
# Track frame offsets: 
#        150
#        11635
#        25980
#        37305
#        50888
#        64255
#        77045
#        89083
#        99093
#        110873
#        122873
#        142348
#        151618
#        163390
#        176072
#        189146
#        203176
#        213301
#        227591
#        238781
#
# Disc length: 3352 seconds
#
# Revision: 0
# Processed by: cddbd v1.5.2PL0 Copyright (c) Steve Scherf et al.
# Submitted via: ExactAudioCopy v0.90b4
#
DISCID=260d1614
DTITLE=Stomping Tom - The Hits Country [CD2]
DYEAR=2014
DGENRE=Country
TTITLE0=My British Coulumbian Home
TTITLE1=Down Nova Scotia Way
TTITLE2=New Brunswick And Mary
TTITLE3=Roll On Saskatchewan
TTITLE4=Ottawa Lures
TTITLE5=The Isles of Magdalen
TTITLE6=Prairie Moon
TTITLE7=Gaspe Belle Faye
TTITLE8=Song Of The Irish Moss
TTITLE9=Manitoba
TTITLE10=Rita Macneil
TTITLE11=Reversing Falls Darling
TTITLE12=My Home Cradled Out of The Waves
TTITLE13=North Of Old Lake Erie
TTITLE14=Tribute To Wilf Carter
TTITLE15=When The Iceworms Nest Again
TTITLE16=Moving To The Rouyn
TTITLE17=Sasquatch Song
TTITLE18=Whale and The Rex-N-Dale
TTITLE19=Stomping Tom Fan Tangle
EXTD=
EXTT0=
EXTT1=
EXTT2=
EXTT3=
EXTT4=
EXTT5=
EXTT6=
EXTT7=
EXTT8=
EXTT9=
EXTT10=
EXTT11=
EXTT12=
EXTT13=
EXTT14=
EXTT15=
EXTT16=
EXTT17=
EXTT18=
EXTT19=
PLAYORDER=
